<?xml version="1.0" encoding="UTF-8"?>
<svg width="658px" height="658px" viewBox="0 0 658 658" version="1.1" xmlns="http://www.w3.org/2000/svg" xmlns:xlink="http://www.w3.org/1999/xlink">
    <title>Group</title>
    <g id="Page-1" stroke="none" stroke-width="1" fill="none" fill-rule="evenodd">
        <g id="Group">
            <circle id="Oval" fill="#DDE3E7" cx="329" cy="329" r="329"></circle>
            <g id="user-alt" transform="translate(158.000000, 158.000000)" fill="#B3B8BF" fill-rule="nonzero">
                <path d="M171,192.375 C224.103516,192.375 267.1875,149.291016 267.1875,96.1875 C267.1875,43.0839844 224.103516,0 171,0 C117.896484,0 74.8125,43.0839844 74.8125,96.1875 C74.8125,149.291016 117.896484,192.375 171,192.375 Z M256.5,213.75 L219.694922,213.75 C204.866016,220.563281 188.367188,224.4375 171,224.4375 C153.632812,224.4375 137.200781,220.563281 122.305078,213.75 L85.5,213.75 C38.2746094,213.75 0,252.024609 0,299.25 L0,309.9375 C0,327.638672 14.3613281,342 32.0625,342 L309.9375,342 C327.638672,342 342,327.638672 342,309.9375 L342,299.25 C342,252.024609 303.725391,213.75 256.5,213.75 Z" id="Shape"></path>
            </g>
        </g>
    </g>
</svg>